<svg height='28px' width='40px'  fill="#000000" xmlns="http://www.w3.org/2000/svg" xmlns:xlink="http://www.w3.org/1999/xlink" version="1.1" x="0px" y="0px" viewBox="0 0 96 96" enable-background="new 0 0 96 96" xml:space="preserve"><g><path d="M53.349,64.709c-3.889,0-7.054,3.164-7.054,7.053s3.165,7.053,7.054,7.053s7.053-3.164,7.053-7.053   S57.237,64.709,53.349,64.709z M53.349,75.916c-2.29,0-4.152-1.863-4.152-4.154c0-2.287,1.862-4.15,4.152-4.15   c2.289,0,4.152,1.863,4.152,4.15C57.501,74.053,55.638,75.916,53.349,75.916z"></path><path d="M27.921,64.709c-3.89,0-7.054,3.164-7.054,7.053s3.164,7.053,7.054,7.053s7.054-3.164,7.054-7.053   S31.811,64.709,27.921,64.709z M27.921,75.916c-2.29,0-4.153-1.863-4.153-4.154c0-2.287,1.863-4.15,4.153-4.15   c2.29,0,4.151,1.863,4.151,4.15C32.072,74.053,30.21,75.916,27.921,75.916z"></path><rect x="21.841" y="38.139" width="37.585" height="2.901"></rect><rect x="24.048" y="50.184" width="33.173" height="2.898"></rect><polygon points="87.521,17.186 73.372,19.545 70.234,29.642 70.217,29.637 69.667,31.471 69.684,31.476 61.284,60.451    19.984,60.451 11.859,32.424 41.603,32.424 41.603,29.522 8,29.522 17.803,63.352 63.464,63.352 72.728,31.395 75.612,22.111    88,20.045  "></polygon></g></svg>